<svg id="Layer_1" data-name="Layer 1" xmlns="http://www.w3.org/2000/svg" viewBox="0 0 64 64"><defs><style>.cls-1{fill:#75b26c;}.cls-2{fill:#fff;}</style></defs><path class="cls-1" d="M25,23.31H3A2.89,2.89,0,0,1,.09,19.72a2.75,2.75,0,0,1,2.14-2.14,5.49,5.49,0,0,1,1.22-.1H24.92c-.26-.29-.42-.47-.58-.63-2-2-4.07-4-6.07-6.09A2.87,2.87,0,0,1,19.5,6a2.7,2.7,0,0,1,2.83.68q5.91,5.86,11.76,11.77a2.77,2.77,0,0,1,0,4Q28.24,28.3,22.33,34.16A2.9,2.9,0,0,1,18.27,30c2-2,4-4.05,6.06-6.08Z"/><path class="cls-2" d="M39.08,46.6c.27.29.43.47.6.64,2,2,4,4,6,6a2.79,2.79,0,0,1,.68,3,2.75,2.75,0,0,1-2.42,1.92,2.65,2.65,0,0,1-2.31-.78c-3.91-3.9-7.82-7.79-11.7-11.72a2.78,2.78,0,0,1,0-4Q35.72,35.8,41.58,30a2.86,2.86,0,0,1,4.1,0,2.91,2.91,0,0,1,0,4.11c-2,2-4,4-6,6-.17.17-.33.35-.6.64h.86q10.48,0,21,0a2.91,2.91,0,1,1,.1,5.82c-.95,0-1.91,0-2.86,0H39.08Z"/></svg>