<?xml version="1.0" encoding="utf-8"?>
<!-- Generator: Adobe Illustrator 26.0.2, SVG Export Plug-In . SVG Version: 6.00 Build 0)  -->
<svg version="1.1" id="Layer_1" xmlns="http://www.w3.org/2000/svg" xmlns:xlink="http://www.w3.org/1999/xlink" x="0px" y="0px"
	 viewBox="0 0 80.5 32" style="enable-background:new 0 0 80.5 32;" xml:space="preserve">
<style type="text/css">
	.st0{fill:#FFFFFF;}
	.st1{fill:#75B26C;}
</style>
<path class="st0" d="M1,19.8c0.1-0.3,0.1-0.6,0.2-0.9c0.2-0.9,0.4-1.8,0.5-2.7s0.4-1.8,0.5-2.6c0-0.1,0.1-0.3,0.1-0.4
	c0-0.1,0.1-0.2,0.2-0.2L4,12.5l2.1-0.7c0.1,0,0.2,0,0.2-0.1c0-0.1,0-0.1-0.1-0.2l-2-2.8L3.9,8.1L4,7.9l1.4-3.4
	c0.4-0.8,0.7-1.7,1.1-2.5c0-0.1,0.1-0.1,0.1-0.2c0-0.1,0.1-0.2,0.3-0.2L8,1.6l1-0.1l1-0.1l1-0.1l1-0.1L13,1h0.3h0.2l1.2,1.8
	C15.2,3.4,15.6,4,16,4.6c0.1,0,0.1-0.1,0.2-0.1l0.7-1l1.5-2.1L18.5,1h0.1l0.9,0.1l1,0.1l1,0.1l1.1,0.1l1,0.1l0.9,0.1l0.5,0
	c0.1,0,0.2,0.1,0.2,0.2l0.5,1.2c0.7,1.6,1.4,3.2,2.2,4.8c0.1,0.2,0.1,0.2,0,0.4l-2.2,3.1c0,0.1-0.1,0.1-0.1,0.2s0.1,0.1,0.2,0.1
	l1.4,0.5l2.2,0.7c0.2,0.1,0.2,0.1,0.3,0.3l0.6,2.9c0.2,1,0.4,1.9,0.6,2.9c0,0.2,0.1,0.5,0.1,0.7c0,0.1,0,0.3-0.1,0.3
	c-0.5,0.4-0.9,0.9-1.4,1.3l-3.3,3l-0.1,0.1c-0.1,0.1-0.2,0.1-0.2,0L24.7,24l-2.5-0.8c-0.1,0-0.2,0-0.3,0c0,0,0,0.1,0,0.1
	c0,0.1,0,0.1,0,0.2v4c-0.1,0.1-5.6,3.4-5.9,3.5L15.9,31l-4.4-2.6l-1-0.6l-0.1-0.1c-0.1,0-0.1-0.1-0.1-0.2c0-0.1,0-0.1,0-0.2v-3.7
	c0-0.1,0-0.2,0-0.2c0,0,0-0.1-0.1-0.1c0,0,0,0,0,0l-0.2,0.1l-2.9,1l-0.7,0.2c0,0.1-0.2,0.1-0.3,0.1C6,24.5,6,24.5,6,24.4l-0.6-0.5
	L1.2,20C1.1,19.9,1.1,19.9,1,19.8z M26.2,22.9l0.1-0.1l0.5-0.4l3-2.8c0.1-0.1,0.1-0.1,0.2-0.2c-0.3-1.6-0.7-3.3-1-4.9
	c0,0,0-0.1,0-0.1s-0.1,0-0.1,0l-0.1,0.1l-2.2,2l-1.2,1.2c-0.1,0.1-0.2,0.2-0.1,0.3l0.4,1.7c0.1,0.8,0.3,1.5,0.5,2.2
	c0,0.3,0.1,0.5,0.2,0.8C26.2,22.8,26.2,22.9,26.2,22.9L26.2,22.9z M3.2,14.4L3.2,14.4l-0.3,1.5c-0.2,0.8-0.3,1.5-0.5,2.3
	c-0.1,0.4-0.2,0.7-0.2,1c-0.1,0.1,0,0.3,0.1,0.3l0.1,0.1l2.3,2.1l1.1,1c0,0,0.1,0.1,0.2,0.1c0-0.1,0-0.1,0.1-0.2l0.4-2.2l0.5-2.5
	c0-0.1,0-0.3-0.1-0.4l-3.2-2.9l-0.3-0.3C3.3,14.5,3.2,14.4,3.2,14.4L3.2,14.4z M12.3,2.2c-0.1,0-0.1,0-0.1,0l-0.6,0l-1,0.1l-1,0.1
	l-1,0.1l-1,0.1c-0.3,0-0.3,0-0.4,0.3L5.8,6.2l-0.4,1c0,0.1,0,0.2,0,0.2c0.1,0,0.1,0,0.2,0L6,7.4l1-0.1l1-0.1L9,7l1-0.1h0.2
	c0.1-0.2,1.9-4.4,2-4.6C12.3,2.2,12.3,2.2,12.3,2.2z M19.6,2.2L19.6,2.2c0.7,1.5,1.3,3,1.9,4.5c0,0.1,0.1,0.1,0.1,0.2H22L23.4,7
	l1.4,0.2L26,7.3l0.6,0.1h0.1c0-0.1,0-0.2-0.1-0.2l-1.1-2.5c-0.3-0.6-0.5-1.2-0.8-1.8c0-0.1-0.1-0.2-0.2-0.2c-0.3,0-0.6-0.1-1-0.1
	l-1-0.1l-1-0.1l-1-0.1L19.6,2.2C19.6,2.1,19.6,2.2,19.6,2.2z M11.6,27.2l0.3,0.2l2.9,1.8c0.3,0.2,0.7,0.4,1,0.6
	c0.1,0.1,0.3,0.1,0.4,0h0l1.7-1l2.3-1.4c0.1,0,0.1-0.1,0.2-0.1c0,0,0,0,0-0.1C20,27,16.1,24.7,16,24.6L11.6,27.2L11.6,27.2z
	 M18.6,2.6c-0.1,0.1-0.1,0.1-0.2,0.2l-1.7,2.5l-0.1,0.1c0,0,0,0.1,0,0.1l0.1,0.2l0.5,0.7c0.2,0.3,0.2,0.2,0,0.6
	c-0.2,0.6-0.5,1.1-0.7,1.7c0,0.1,0,0.2,0,0.3c0.4,0.8,0.7,1.6,1.1,2.4l0.1,0.1c0.1,0,0.1-0.1,0.2-0.1l1.6-2.2l1.1-1.6
	c0.2-0.2,0.1-0.2,0-0.4c-0.6-1.4-1.2-2.9-1.9-4.3C18.7,2.7,18.7,2.7,18.6,2.6L18.6,2.6z M15.3,5.4l-0.1-0.2l-1-1.4l-0.7-1
	c0-0.1-0.1-0.1-0.1-0.2s-0.1,0.1-0.1,0.2c-0.6,1.4-1.2,2.8-1.8,4.2c-0.1,0.3-0.1,0.2,0,0.5l1.8,2.6l0.9,1.2c0,0.1,0.1,0.1,0.2,0.2
	s0.1-0.1,0.1-0.2c0.2-0.5,0.5-1.1,0.7-1.6c0.1-0.2,0.2-0.5,0.3-0.8c0-0.1,0-0.2,0-0.3l-0.1-0.1c-0.2-0.5-0.5-1.1-0.7-1.6
	c0-0.1-0.1-0.2-0.1-0.2L14.9,6C15.1,5.8,15.2,5.7,15.3,5.4L15.3,5.4z M16.5,18.5c0,0.1,0,0.2,0,0.2v2.1c0,0.9,0,1.8,0,2.6
	c0,0.1,0.1,0.3,0.2,0.3l0,0l2.7,1.6l1.3,0.8c0.1,0.1,0.1,0.1,0.2,0.1c0-0.1,0-0.1,0-0.2c0-0.2,0-0.5,0-0.7c0-0.8,0-1.6,0-2.4
	c0-0.2,0-0.2-0.2-0.3h-0.1l-1-0.3c-0.1,0-0.2-0.1-0.2-0.2c-0.1-0.4-0.2-0.9-0.3-1.3L19,20.1c0-0.1-0.1-0.1-0.1-0.2l-0.3-0.2
	l-1.9-1.1C16.6,18.6,16.6,18.6,16.5,18.5L16.5,18.5z M19.3,16.5c0,0.1,0,0.1,0,0.2l0.5,2.3c0,0.1,0,0.2,0,0.2c0,0.1,0.1,0.1,0.1,0.2
	l0.1,0.1l1.6,1l0.2,0.1v1.3c0,0.3,0,0.3,0.2,0.4l2.5,0.8l0.4,0.1h0.1c0-0.1,0-0.2,0-0.3c-0.3-1.5-0.6-2.9-0.9-4.4
	c0-0.1-0.1-0.2-0.1-0.4L23.9,18l-3-1l-1.3-0.4C19.5,16.5,19.4,16.5,19.3,16.5L19.3,16.5z M24.9,12.5l-0.1,0.2
	c-0.2,0.3-0.4,0.6-0.6,0.9c0,0.1-0.1,0.1-0.1,0.2c-0.2,0-0.3,0-0.5,0l-1.1-0.1l-0.6-0.1c-0.1,0-0.2,0-0.3,0.1L21,14.1l-1.3,1.2
	c0,0-0.1,0.1-0.1,0.1c0,0,0.1,0.1,0.2,0.1l4.4,1.4c0.3,0.1,0.2,0.1,0.5-0.1l2.7-2.5l0.7-0.6c0,0,0.1-0.1,0.1-0.2c0,0,0,0-0.1-0.1
	C27.8,13.4,25.1,12.6,24.9,12.5L24.9,12.5z M26.5,8.5h-0.1l-0.7-0.1l-1-0.1l-1-0.1l-1-0.1l-1-0.1c-0.3,0-0.2,0-0.4,0.2
	c-0.7,1.1-1.5,2.1-2.3,3.2L18.6,12c0,0-0.1,0.1,0,0.1h0l0.5,0.1l1,0.1c0.3,0,0.7,0.1,1,0.1c0.1,0,0.3,0,0.3-0.1l0.1-0.1L23,11
	l0.1-0.1c0,0,0.1,0,0.1,0l0.1,0.1l1,0.3l0.2,0.1l0.1-0.2L26,9.3l0.4-0.6C26.5,8.6,26.5,8.6,26.5,8.5L26.5,8.5z M7.4,11.3l0.2-0.1
	L8.5,11l0.3-0.1c0.1,0,0.1,0,0.2,0l0.4,0.4l1.1,1c0.1,0.1,0.2,0.1,0.3,0.1l0.6-0.1l1.5-0.2c0.1,0,0.2,0,0.3-0.1
	c0-0.1-0.1-0.2-0.1-0.3l-2.6-3.7c-0.2-0.3-0.1-0.3-0.6-0.2L9,8.1L8,8.2L7,8.3L6,8.4L5.5,8.5H5.4l0.1,0.1C5.7,9,7.2,11.2,7.4,11.3z
	 M3.8,13.6C3.9,13.7,4,13.7,4,13.8l1.8,1.7C6.4,16,7,16.5,7.5,17c0.1,0.1,0.2,0.1,0.2,0h0.1l2.2-0.7l2.1-0.7c0.1,0,0.2,0,0.2-0.1
	s-0.1-0.1-0.1-0.2l-1.5-1.4l-0.3-0.3c0,0-0.1-0.1-0.2-0.1L9,13.6l-0.9,0.1H7.9c-0.3-0.4-0.6-0.8-0.9-1.2c-0.2,0-2.6,0.8-3,1
	L3.8,13.6z M6.9,23.1H7l0.8-0.3l2-0.7c0.2-0.1,0.2-0.1,0.2-0.3v-1.2c0-0.2,0-0.2,0.2-0.3l0.1-0.1l1.6-1c0.1,0,0.2-0.1,0.2-0.2
	c0.1-0.3,0.1-0.6,0.2-0.9c0.1-0.5,0.2-1,0.3-1.5c0-0.1,0-0.1,0-0.2c-0.1,0-0.2,0-0.2,0.1l-3.7,1.3L8.1,18c-0.1,0-0.2,0.1-0.2,0.2
	v0.1c-0.1,0.3-0.1,0.6-0.2,0.9c-0.3,1.2-0.5,2.4-0.8,3.7C6.9,23,6.9,23.1,6.9,23.1z M14,15.5c-0.1,0.6-0.2,1.2-0.4,1.8
	c-0.1,0.4-0.1,0.7-0.2,1.1c0,0,0,0.1,0,0.1c0.1,0,0.2-0.1,0.2-0.1l2.2-1.3L16,17l0.2,0.1l1.7,1.1l0.6,0.4c0,0,0.1,0.1,0.1,0
	c0,0,0-0.1,0-0.1c-0.2-0.9-0.4-1.8-0.6-2.7c-0.1-0.3,0-0.3,0.1-0.4l1.5-1.3l0.5-0.4c0,0,0.1-0.1,0.1-0.1l-0.2-0.1l-1-0.1l-0.5-0.1
	c-0.3,0-0.7-0.1-1-0.1s-0.3,0-0.4-0.3c-0.3-0.8-0.7-1.6-1-2.5c0-0.1-0.1-0.2-0.1-0.2c0,0,0,0-0.1,0.1l-0.1,0.1
	c-0.4,0.8-0.7,1.6-1.1,2.4c0,0.1-0.1,0.2-0.1,0.3c0,0.1-0.1,0.1-0.2,0.1h-0.1l-0.6,0.1l-1,0.1l-1,0.1c-0.1,0-0.1,0-0.2,0.1
	c0.2,0.2,0.5,0.5,0.7,0.7l0.7,0.7L14,15.5z M11.1,26.3c0.1,0,0.2-0.1,0.3-0.1l3.9-2.3c0.3-0.1,0.2-0.1,0.2-0.4v-4.8c0,0,0-0.1,0-0.1
	c-0.1,0-0.1,0-0.2,0.1c-0.7,0.4-1.3,0.8-2,1.2c-0.1,0.1-0.2,0.2-0.2,0.3c-0.1,0.7-0.3,1.4-0.4,2c0,0.1-0.1,0.2-0.2,0.2l-0.6,0.2
	l-0.5,0.2c-0.2,0.1-0.2,0.1-0.2,0.3c0,1,0,2,0,3.1C11.1,26.2,11.1,26.2,11.1,26.3z M11.1,21.7L11.1,21.7l0.6-0.2
	c0.1,0,0.1-0.1,0.1-0.1c0-0.2,0.1-0.4,0.1-0.7v-0.1l-0.1,0c-0.1,0.1-0.2,0.1-0.3,0.2c-0.1,0.1-0.2,0.1-0.3,0.2c0,0-0.1,0.1-0.1,0.1
	C11,21.3,11,21.5,11.1,21.7z M8,12.2c0.1,0.1,0.2,0.3,0.2,0.4c0,0.1,0.1,0.1,0.2,0.1l0.7-0.1h0.1c0,0,0-0.1,0-0.1L8.7,12
	c0,0-0.1,0-0.1,0C8.4,12,8.2,12.1,8,12.2z M23.9,12.2c-0.1-0.1-0.3-0.1-0.4-0.2c-0.1,0-0.1,0-0.2,0.1l-0.5,0.4c0,0-0.1,0.1-0.1,0.1
	c0,0,0.1,0.1,0.2,0.1h0.4h0.1c0.1,0,0.1,0,0.1-0.1L23.9,12.2C23.9,12.2,23.9,12.2,23.9,12.2L23.9,12.2z M20.9,21.7
	c0-0.2,0-0.3,0-0.5c0-0.1,0-0.2-0.1-0.2l-0.5-0.3c0,0-0.1,0-0.1,0c0,0,0,0,0,0.1c0,0.2,0.1,0.4,0.1,0.7c0,0.1,0.1,0.1,0.1,0.1
	l0.3,0.1C20.8,21.7,20.8,21.7,20.9,21.7L20.9,21.7z M15.9,7.5C15.9,7.5,16,7.5,15.9,7.5c0.2-0.2,0.2-0.4,0.3-0.6c0,0,0-0.1,0-0.2
	L16,6.4V6.4c-0.1,0.1-0.2,0.2-0.3,0.4c0,0,0,0.1,0,0.1C15.8,7.1,15.9,7.3,15.9,7.5z"/>
<path class="st1" d="M13.1,14c0.7-0.1,1.4-0.1,2.1-0.1c0-0.1,0.1-0.2,0.1-0.2c0.2-0.5,0.3-1,0.5-1.5c0-0.1,0-0.2,0.1-0.2
	c0.1,0.2,0.2,0.4,0.2,0.7l0.2,0.6c0.1,0.2,0.1,0.4,0.2,0.7c0.1,0,0.2,0,0.3,0h1.8c-0.1,0.1-0.2,0.2-0.3,0.2l-0.3,0.2l-0.3,0.2
	l-0.3,0.2l-0.3,0.2L17,15.2c0,0.1,0,0.2,0.1,0.3l0.5,1.5c0,0.1,0.1,0.1,0,0.2s-0.1,0-0.2-0.1L16,16.1L15.9,16
	c-0.3,0.2-0.6,0.4-0.9,0.6l-0.9,0.6c0.1-0.4,0.2-0.7,0.3-1s0.2-0.7,0.3-1c0-0.1-0.1-0.1-0.2-0.2l-1.3-0.9L13.1,14z"/>
<path class="st0" d="M65.7,10.2l0.2,0.3c0.5,0.6,0.6,1.5,0.2,2.3c-0.4,0.7-1.1,1.2-1.9,1.2c-0.4,0-0.8,0-1.2,0h-2.3
	c-0.6,0-0.8-0.3-0.8-0.8s0-0.8,0-1.2V7.5c0-0.7,0.2-0.9,0.9-0.9h3c0.2,0,0.4,0,0.6,0.1c1.2,0.3,1.9,1.5,1.7,2.6
	c0,0.1-0.1,0.3-0.1,0.4C65.9,9.9,65.8,10.1,65.7,10.2z M61.4,9.6c0.9,0.1,1.8,0.1,2.7,0h0.2c0.3-0.1,0.6-0.4,0.5-0.8
	C64.8,8.4,64.5,8,64,8c0,0,0,0-0.1,0c-0.8,0-1.6,0-2.4,0c0,0-0.1,0-0.2,0.1C61.3,8.6,61.3,9.1,61.4,9.6z M61.4,11.1
	c-0.1,0.5-0.1,0.9,0,1.4c0.1,0,0.2,0.1,0.3,0.1H64c0.1,0,0.3,0,0.4,0c0.3-0.1,0.4-0.3,0.5-0.6c0.1-0.3-0.1-0.6-0.4-0.7
	c-0.2-0.1-0.4-0.1-0.6-0.1h-1.8L61.4,11.1z"/>
<path class="st0" d="M61.4,19.6c0,0.6,0,1.2,0,1.9c0.1,0,0.3,0.1,0.4,0.1h1.8c0.2,0,0.3,0,0.5,0c0.3,0,0.6,0.3,0.6,0.6
	c0,0.3-0.2,0.6-0.5,0.7c-0.2,0-0.3,0-0.5,0H62h-0.6c-0.1,0.4-0.1,0.8,0,1.1c0.2,0,0.4,0.1,0.6,0.1h3c0.2,0,0.4,0,0.6,0
	c0.3,0.1,0.5,0.4,0.5,0.7c0,0.3-0.3,0.6-0.6,0.6h-4.5c-0.7,0-0.9-0.2-0.9-1c0-1.8,0-3.6,0-5.4v-0.3c0-0.4,0.3-0.7,0.7-0.7
	c0,0,0,0,0,0c0.1,0,0.2,0,0.3,0h4c0.1,0,0.3,0,0.4,0c0.4,0.1,0.6,0.4,0.5,0.8c0,0.2-0.2,0.4-0.4,0.5c-0.2,0.1-0.4,0.1-0.6,0.1h-3.6
	V19.6z"/>
<path class="st0" d="M47.7,11.1l0.7,1.4c0.1,0.2,0.2,0.3,0.2,0.5c0.1,0.3,0,0.7-0.3,0.8c-0.3,0.1-0.6,0.1-0.8-0.2
	c-0.1-0.1-0.2-0.2-0.2-0.4l-1-1.9c-0.7-0.1-1.3-0.1-2,0c0,0.2,0,0.4,0,0.6s0,0.8,0,1.2c0,0.4-0.3,0.7-0.7,0.7
	c-0.4,0-0.7-0.3-0.7-0.7c0-0.1,0-0.2,0-0.3v-2.4c0.1-0.4,0.3-0.7,0.7-0.7h3.2c0.5-0.1,0.8-0.5,0.8-1c0-0.5-0.3-0.9-0.8-1
	c0,0,0,0-0.1,0h-2.7c-0.2,0-0.4,0-0.6,0c-0.3-0.1-0.5-0.4-0.5-0.7c0-0.3,0.3-0.6,0.6-0.7h3.2c0.3,0,0.6,0.1,0.9,0.1
	c0.4,0.1,0.8,0.4,1,0.8c0.7,1,0.5,2.4-0.3,3.3L47.7,11.1z"/>
<path class="st0" d="M37.5,8.8c-0.1,0.2-0.2,0.3-0.3,0.5l-2,3.9c-0.1,0.1-0.2,0.3-0.3,0.4c-0.2,0.3-0.6,0.4-0.8,0.2
	c-0.3-0.1-0.4-0.5-0.3-0.8c0.1-0.2,0.1-0.3,0.2-0.5l2.8-5.3C36.8,7.1,36.9,7,37,6.8c0.2-0.3,0.6-0.4,0.9-0.1c0.1,0,0.1,0.1,0.1,0.1
	c0.1,0.1,0.2,0.3,0.3,0.4l2.8,5.4c0.1,0.2,0.1,0.4,0.2,0.5c0,0.3-0.1,0.6-0.4,0.7c-0.3,0.1-0.6,0-0.8-0.3c-0.1-0.1-0.2-0.3-0.3-0.4
	l-1.9-3.7C37.8,9.3,37.6,9.1,37.5,8.8z"/>
<path class="st0" d="M45.7,20.3c-0.1,0.2-0.2,0.3-0.3,0.5l-2,3.9c-0.1,0.1-0.2,0.3-0.3,0.4c-0.2,0.3-0.6,0.4-0.8,0.2
	c-0.3-0.1-0.4-0.5-0.3-0.8c0.1-0.2,0.1-0.3,0.2-0.5l2.8-5.3c0.1-0.2,0.2-0.3,0.3-0.5c0.2-0.3,0.6-0.4,0.9-0.1c0.1,0,0.1,0.1,0.1,0.1
	c0.1,0.1,0.2,0.3,0.3,0.4l2.8,5.4c0.1,0.2,0.1,0.4,0.2,0.5c0,0.3-0.1,0.6-0.4,0.7c-0.3,0.1-0.6,0-0.8-0.3c-0.1-0.1-0.2-0.3-0.3-0.4
	L46.1,21C45.9,20.8,45.8,20.6,45.7,20.3z"/>
<path class="st0" d="M54.5,8.9L53.9,10c-0.6,1-1.1,2.1-1.6,3.1c-0.1,0.2-0.2,0.3-0.3,0.5c-0.2,0.2-0.5,0.3-0.8,0.2
	c-0.3-0.1-0.4-0.4-0.4-0.6c0-0.2,0.1-0.5,0.2-0.7l1.2-2.3l1.6-3c0.1-0.2,0.2-0.3,0.3-0.4c0.2-0.3,0.7-0.3,1-0.1c0,0,0.1,0.1,0.1,0.1
	c0.1,0.1,0.1,0.2,0.2,0.3l2.9,5.6c0.1,0.1,0.1,0.2,0.1,0.3c0.1,0.3-0.1,0.7-0.3,0.8c-0.3,0.1-0.6,0.1-0.8-0.2
	c-0.1-0.2-0.2-0.4-0.3-0.6c-0.6-1.2-1.2-2.3-1.8-3.5C54.9,9.3,54.7,9,54.5,8.9z"/>
<path class="st0" d="M54.7,19.5c0,0.3,0,0.5,0,0.8v4c0,0.2,0,0.4,0,0.6c0,0.4-0.4,0.7-0.8,0.6c-0.4,0-0.6-0.3-0.6-0.7
	c0-0.2,0-0.3,0-0.5v-4c0-0.2,0-0.5,0-0.8c-0.1,0-0.3,0-0.4,0h-1.4c-0.2,0-0.3,0-0.5,0c-0.4,0-0.7-0.3-0.7-0.7c0-0.4,0.3-0.7,0.7-0.7
	l0,0c0.1,0,0.2,0,0.3,0h5.6c0.1,0,0.3,0,0.4,0c0.3,0.1,0.5,0.3,0.5,0.6c0,0.3-0.1,0.6-0.4,0.7c-0.2,0.1-0.4,0.1-0.6,0.1h-1.4
	L54.7,19.5z"/>
<path class="st1" d="M41.5,21.9c0,0.3,0,0.5-0.1,0.8c0,0.2-0.1,0.3-0.1,0.4c-0.3,0.8-0.7,1.5-1.4,1.9c-0.6,0.5-1.4,0.8-2.3,0.8
	c-2.2,0-4-1.7-4-3.9c0-2.2,1.7-4,3.9-4h0.1c0.9,0,1.7,0.3,2.4,0.8c0.1,0,0.2,0.1,0.2,0.2c0.1,0.1,0.2,0.3,0.2,0.5
	c0,0.4-0.3,0.7-0.7,0.7c-0.1,0-0.3,0-0.4-0.1c0,0-0.1-0.1-0.1-0.1c-0.4-0.3-1-0.5-1.6-0.5c-1.4,0-2.5,1.1-2.6,2.5
	c0,1.4,1.2,2.5,2.6,2.5c0,0,0,0,0,0c1.1,0,2-0.7,2.3-1.6v0c-0.1,0-0.3,0-0.4,0h-1.4c-0.2,0-0.3,0-0.5,0c-0.4,0-0.7-0.3-0.7-0.7
	c0-0.4,0.3-0.7,0.7-0.7h3.3C41.2,21.3,41.5,21.6,41.5,21.9z"/>
</svg>
