<svg xmlns="http://www.w3.org/2000/svg" xmlns:xlink="http://www.w3.org/1999/xlink" width="136" height="59" viewBox="0 0 136 59"><defs><clipPath id="b"><rect width="136" height="59"/></clipPath></defs><g id="a" clip-path="url(#b)"><g transform="translate(-51.282 32.894)"><g transform="translate(96 -32)"><path d="M4.89,26.907c.081-.405.162-.817.25-1.222.243-1.186.493-2.371.736-3.564l.736-3.5c.044-.2.1-.4.125-.6s.11-.228.25-.28c.611-.191,1.215-.4,1.819-.6l2.842-.943c.11-.037.236-.044.309-.147a.508.508,0,0,0-.133-.258L9.176,12.057l-.523-.7c.037-.1.066-.184.1-.272l1.959-4.507c.471-1.1.95-2.209,1.421-3.284a2.437,2.437,0,0,0,.11-.243c.052-.177.177-.221.346-.243.5-.044,1-.11,1.473-.162L15.4,2.514l1.333-.147,1.3-.142,1.3-.142,1.421-.118.346-.037h.295c.568.773,1.119,1.51,1.672,2.3s1.1,1.572,1.657,2.34c.142,0,.169-.1.221-.162.324-.449.639-.906.957-1.355L27.888,2.25l.258-.355a.736.736,0,0,1,.177,0l1.244.133,1.355.147,1.3.133,1.473.155,1.355.155,1.242.132.692.066a.324.324,0,0,1,.3.228l.685,1.576q1.406,3.225,2.8,6.458c.125.272.155.228-.059.523l-2.894,4.087c-.066.088-.125.191-.184.28.059.133.184.133.272.169l1.8.6,2.945.987c.309.1.3.1.368.405l.8,3.814c.258,1.274.523,2.548.782,3.822.066.3.11.611.2.906a.42.42,0,0,1-.155.457c-.619.56-1.23,1.127-1.841,1.694l-4.418,4.05-.177.162a.28.28,0,0,1-.317.066l-1.539-.515-3.313-1.111a.56.56,0,0,0-.355-.066v5.729c-.191.155-7.5,4.5-7.864,4.669l-.243-.133-5.891-3.482-1.4-.834-.169-.1a.236.236,0,0,1-.133-.243V31.852a2.283,2.283,0,0,0,0-.317.088.088,0,0,0-.118-.088l-.28.081L12.7,32.817c-.28.1-.574.177-.853.28a.28.28,0,0,1-.317-.066c-.25-.243-.508-.479-.736-.736L5.258,27.14a1.215,1.215,0,0,1-.368-.232Zm33.49,4.138.147-.118.626-.568,4-3.682a.626.626,0,0,0,.221-.284c-.449-2.209-.906-4.367-1.362-6.554a.17.17,0,0,0-.052-.118.383.383,0,0,0-.11.044l-.177.155-2.887,2.673c-.552.515-1.1,1.031-1.672,1.539a.426.426,0,0,0-.142.464c.169.736.317,1.517.479,2.274.2.987.405,1.973.611,2.945.071.361.147.736.228,1.082.011.042.055.079.092.145ZM7.732,19.731a.176.176,0,0,1-.037.125l-.4,1.907c-.213,1-.42,2.01-.633,3.012l-.284,1.4a.361.361,0,0,0,.133.434c.059.044.11.1.169.155l3.034,2.806,1.473,1.35c.052.052.1.118.206.088a2.208,2.208,0,0,0,.071-.236l.6-2.945c.228-1.09.449-2.209.685-3.268a.471.471,0,0,0-.169-.508l-4.2-3.837L7.916,19.8C7.916,19.754,7.828,19.695,7.732,19.731ZM19.953,3.443a1.649,1.649,0,0,0-.177,0l-.736.071-1.3.142L16.353,3.8l-1.3.142c-.464.052-.924.11-1.384.147s-.4.059-.538.376L11.209,8.886l-.56,1.279a.331.331,0,0,0-.052.295h.265l.736-.081,1.325-.147,1.318-.162L15.6,9.915l1.325-.142a2.842,2.842,0,0,0,.3-.052c.11-.2,2.57-5.8,2.7-6.182a.426.426,0,0,0,.022-.1Zm9.663,0v.071l2.6,5.957c0,.088.081.169.125.258l.412.066,1.885.191,1.878.213,1.563.169.782.071a1.141,1.141,0,0,0,.155,0,.552.552,0,0,0-.088-.317L37.454,6.677,36.391,4.335a.368.368,0,0,0-.339-.265l-1.274-.125L33.416,3.79l-1.3-.142-1.333-.142L29.749,3.44ZM18.958,36.793l.346.213,3.932,2.327c.434.258.869.508,1.3.736a.39.39,0,0,0,.508,0,.243.243,0,0,1,.071-.044l2.209-1.3,3.049-1.811c.081-.044.184-.071.228-.184a.383.383,0,0,0-.071-.081c-.368-.258-5.542-3.3-5.755-3.38q-2.864,1.723-5.714,3.417a1.177,1.177,0,0,0-.1.11ZM28.336,4a.8.8,0,0,0-.243.265l-2.32,3.277-.118.169a.177.177,0,0,0,0,.191l.142.191.67.95c.295.434.284.28.071.773q-.475,1.1-.965,2.209a.449.449,0,0,0,0,.39q.736,1.62,1.421,3.255a1.17,1.17,0,0,0,.1.162c.133,0,.162-.118.213-.191.736-.987,1.406-1.981,2.106-2.945l1.473-2.113c.206-.284.206-.243.059-.582-.825-1.915-1.657-3.822-2.487-5.736ZM23.918,7.788,23.727,7.5l-1.34-1.918-.966-1.361c-.052-.081-.1-.169-.2-.206a.5.5,0,0,0-.162.272Q19.823,7.125,18.6,9.945c-.169.4-.177.3.071.655l2.44,3.447c.368.523.736,1.046,1.112,1.563.059.088.1.191.213.228s.118-.155.155-.243c.309-.736.626-1.436.935-2.158.147-.339.284-.677.449-1.016a.39.39,0,0,0,0-.383,2,2,0,0,1-.081-.184l-.943-2.165-.11-.3L23.38,8.6a9.7,9.7,0,0,0,.56-.81Zm1.546,17.444a.574.574,0,0,0-.052.331v6.259a.4.4,0,0,0,.25.442h.053l3.579,2.121L31,35.394a.434.434,0,0,0,.284.1V31.138c0-.265,0-.265-.25-.355l-.11-.037c-.42-.142-.839-.284-1.267-.42a.376.376,0,0,1-.295-.317c-.11-.582-.228-1.156-.355-1.738-.066-.331-.142-.663-.206-.995a.355.355,0,0,0-.184-.25l-.346-.206-2.558-1.473a.479.479,0,0,0-.228-.118Zm3.682-2.725v.206l.639,3.1a2.194,2.194,0,0,0,.066.317.3.3,0,0,0,.169.221l.147.088,2.216,1.3.25.155v1.7c0,.361,0,.346.331.464l3.309,1.108.582.184a.817.817,0,0,0,.142,0,.972.972,0,0,0-.037-.39l-1.215-5.891a2.468,2.468,0,0,0-.118-.5l-.346-.125-4.024-1.339-1.716-.568a.426.426,0,0,0-.339-.037Zm7.526-5.3-.191.258c-.272.383-.538.736-.81,1.141-.059.088-.125.169-.177.236a2.437,2.437,0,0,1-.663-.037l-1.473-.162-.839-.081a.4.4,0,0,0-.346.118l-.736.655c-.574.523-1.141,1.053-1.705,1.583-.066.052-.147.1-.155.2a.331.331,0,0,0,.221.118l5.773,1.918c.412.133.317.191.677-.147l3.593-3.321.9-.832a.376.376,0,0,0,.177-.228.308.308,0,0,0-.1-.059c-.331-.177-3.859-1.325-4.087-1.362Zm2.172-5.368-.125-.037-.9-.11L36.5,11.543,35.163,11.4l-1.333-.142c-.442-.044-.884-.11-1.325-.147s-.317-.037-.508.228L28.9,15.714c-.191.265-.383.538-.568.81-.044.052-.1.1-.044.184a.258.258,0,0,0,.081,0l.633.081,1.325.147c.457.052.913.081,1.362.147a.442.442,0,0,0,.442-.142c0-.044.088-.071.133-.118l1.856-1.71.133-.118a.147.147,0,0,1,.162,0l.191.059,1.325.434.317.1.206-.258,1.716-2.43.568-.8c.028-.085.1-.144.1-.262ZM13.358,15.616l.284-.088,1.215-.4.412-.133a.2.2,0,0,1,.236.059l.6.552,1.473,1.34a.479.479,0,0,0,.42.155c.272-.044.552-.052.832-.081l2.084-.228a1.429,1.429,0,0,0,.42-.088.847.847,0,0,0-.191-.339c-1.156-1.634-2.312-3.277-3.476-4.912-.28-.383-.162-.376-.736-.309l-1.355.147-1.333.142-1.325.147-1.362.142-.692.088-.133.052a.685.685,0,0,0,.066.147C11.127,12.567,13.174,15.417,13.358,15.616ZM8.653,18.642l.236.236,2.459,2.274c.736.663,1.473,1.325,2.158,2a.272.272,0,0,0,.339.071l.162-.052L16.9,22.2l2.8-.943c.11-.037.236-.044.309-.147s-.1-.162-.169-.221l-2.033-1.871-.426-.4a.272.272,0,0,0-.236-.081l-1.649.177-1.244.133h-.28c-.412-.53-.736-1.09-1.163-1.6-.243.044-3.476,1.1-4,1.3Zm4.072,12.695h.162l1.075-.355,2.7-.906c.243-.081.25-.088.25-.346a.626.626,0,0,0,0-.118V28.186c0-.324,0-.295.25-.457l.177-.1c.736-.434,1.473-.876,2.209-1.3a.449.449,0,0,0,.243-.339c.071-.4.169-.817.25-1.222q.213-.994.412-1.989a.265.265,0,0,0,0-.265.736.736,0,0,0-.324.081l-4.9,1.634-.972.317a.28.28,0,0,0-.213.243,1.141,1.141,0,0,1,0,.169c-.088.42-.169.839-.25,1.259l-1.016,4.86a.376.376,0,0,0-.037.265Zm9.418-10.154c-.169.81-.331,1.6-.493,2.386-.1.486-.206.972-.3,1.473a.254.254,0,0,0,.052.191.853.853,0,0,0,.295-.147l2.872-1.76.28-.147.265.147,2.3,1.473.8.493c.052,0,.11.081.191,0a1.208,1.208,0,0,0,0-.162c-.25-1.208-.486-2.416-.736-3.616-.081-.39,0-.355.177-.552L29.8,19.136l.611-.574c.059-.052.133-.1.11-.206l-.272-.059-1.326-.129-.692-.071c-.442-.052-.884-.118-1.333-.147s-.39-.059-.53-.405l-1.35-3.284a.479.479,0,0,0-.157-.28.219.219,0,0,0-.071.071,1.083,1.083,0,0,0-.1.206L23.26,17.432c-.052.118-.11.228-.155.346a.272.272,0,0,1-.25.169h-.142l-.736.081-1.318.142-1.274.125a.213.213,0,0,0-.221.118c.309.324.655.611.987.928s.648.6.979.913ZM18.262,35.542a1.127,1.127,0,0,0,.355-.162l5.206-3.085c.339-.2.284-.162.284-.523V25.344a.324.324,0,0,0,0-.11.5.5,0,0,0-.272.11c-.884.523-1.767,1.053-2.651,1.568a.545.545,0,0,0-.284.4c-.184.913-.383,1.819-.56,2.732a.368.368,0,0,1-.284.317c-.272.081-.53.177-.8.265l-.736.236c-.258.088-.258.088-.258.346v4.072A.348.348,0,0,0,18.262,35.542Zm0-6.075h.088l.663-.213a.206.206,0,0,0,.142-.169c.059-.295.125-.589.177-.884a.825.825,0,0,0,0-.191,1.428,1.428,0,0,0-.177.071l-.426.25-.368.221a.184.184,0,0,0-.11.162,3.527,3.527,0,0,0,.011.752ZM14.2,16.794a2.725,2.725,0,0,0,.339.53.236.236,0,0,0,.243.11l.95-.11a1.191,1.191,0,0,0,.142,0v-.1l-.7-.655a.206.206,0,0,0-.162,0,4.057,4.057,0,0,0-.81.221Zm21.163-.059a4.418,4.418,0,0,0-.6-.213.228.228,0,0,0-.258.066l-.6.552a.552.552,0,0,0-.1.133c.059.088.142.081.213.1l.574.059h.208a.184.184,0,0,0,.177-.081c.125-.169.243-.346.361-.523.013-.006,0-.045.013-.089Zm-4.05,12.687v-.6a.28.28,0,0,0-.147-.265l-.648-.376a.39.39,0,0,0-.133,0q0,.033,0,.066c.059.295.11.589.177.884a.213.213,0,0,0,.169.177l.412.147ZM24.75,10.476c.052-.044.081-.059.088-.081.11-.236.213-.471.317-.736a.191.191,0,0,0,0-.213c-.081-.118-.162-.243-.25-.355a.736.736,0,0,0-.11-.1,1.87,1.87,0,0,0-.39.515.206.206,0,0,0,0,.133,7.826,7.826,0,0,0,.346.839Z" transform="translate(-4.89 -1.889)" fill="#fff"/><path d="M26.77,24.3a22.827,22.827,0,0,1,2.739-.1c.052-.125.1-.228.133-.339.213-.67.434-1.35.655-2.018a.523.523,0,0,1,.142-.295,8.352,8.352,0,0,1,.3.884c.1.28.184.574.28.853l.284.876a.924.924,0,0,0,.39.059h2.416a2.282,2.282,0,0,1-.383.317l-.355.258L33,25.068l-.376.28-.355.258-.368.272a.924.924,0,0,0,.081.355l.639,1.989c0,.1.1.191.052.309-.11,0-.162-.071-.236-.118l-1.723-1.244-.295-.206c-.405.272-.782.568-1.163.839l-1.171.847c.133-.5.3-.943.442-1.392s.295-.884.42-1.311a.568.568,0,0,0-.243-.236l-1.716-1.259Z" transform="translate(-10.659 -7.072)" fill="#fff"/></g><g transform="translate(52.887 14.695)"><path d="M49.837,64.163c.49-1.371.881-2.447,1.3-3.695.171-.514.342-1.028.539-1.542a2.448,2.448,0,0,1,.171-.441A.93.93,0,0,1,52.969,58a.881.881,0,0,1,.539,1.1,16.253,16.253,0,0,1-.49,1.563l-2.1,6.02a2.863,2.863,0,0,1-.244.639.905.905,0,0,1-1.591,0c0-.2-.171-.391-.269-.612L47.072,62.4q-.147-.367-.367-.808a.856.856,0,0,0-.391.563l-1.834,4.552a3.792,3.792,0,0,1-.342.711.881.881,0,0,1-1.468,0,3.327,3.327,0,0,1-.269-.612l-2.448-7.122a2.593,2.593,0,0,1-.147-.465.954.954,0,0,1,.539-1.15.93.93,0,0,1,1.174.588c.122.318.244.661.342.979l1.322,3.744c0,.244.2.465.318.782l.342-.685c.563-1.444,1.15-2.863,1.737-4.307a4.575,4.575,0,0,1,.367-.782.881.881,0,0,1,1.469,0,3.7,3.7,0,0,1,.318.711c.588,1.395,1.15,2.814,1.713,4.209C49.519,63.5,49.642,63.723,49.837,64.163Z" transform="translate(45.833 -57.799)" fill="#fff"/><path d="M26.8,62.967l.244.342a2.814,2.814,0,0,1,.293,3.01,2.888,2.888,0,0,1-2.447,1.563h-4.7c-.734,0-1.052-.318-1.1-1.052V59.2c0-.93.318-1.224,1.224-1.248h3.965l.856.147a2.937,2.937,0,0,1,2.007,4.087,5.9,5.9,0,0,1-.342.782Zm-5.849-.905a29.66,29.66,0,0,0,3.548,0h.293a1.052,1.052,0,0,0,.734-1.028,1.076,1.076,0,0,0-1.076-1.125H21.17l-.244.122a13.557,13.557,0,0,0,.024,1.933Zm0,2.031a3.891,3.891,0,0,0,0,1.835,1.3,1.3,0,0,0,.392,0h3.181a1.518,1.518,0,0,0,.563,0,.905.905,0,0,0,.639-.759.832.832,0,0,0-.539-.93,1.835,1.835,0,0,0-.808-.171H21.929Z" transform="translate(15.914 -57.802)" fill="#fff"/><path d="M32.875,64.12V59.495a3.941,3.941,0,0,1,0-.759.979.979,0,0,1,1.076-.639.954.954,0,0,1,.855.909,4.31,4.31,0,0,1,0,.563v6.876a6.388,6.388,0,0,1,0,.685.93.93,0,0,1-1.469.639,3.766,3.766,0,0,1-.639-.612c-1.444-1.591-2.888-3.206-4.356-4.894-.2-.22-.367-.514-.661-.612s-.147.441-.147.661v3.965a4.259,4.259,0,0,1,0,.782.881.881,0,0,1-.93.782.856.856,0,0,1-.856-.856,4.334,4.334,0,0,1,0-.563V58.831a.856.856,0,0,1,.514-.759.93.93,0,0,1,1,0,5.851,5.851,0,0,1,.539.563L32.428,63.7a2.448,2.448,0,0,1,.293.392Z" transform="translate(25.549 -57.829)" fill="#fff"/><path d="M56.465,63.055a5.258,5.258,0,1,1-5.286-5.163,5.163,5.163,0,0,1,5.286,5.163Zm-5.212,3.328a3.328,3.328,0,1,0-3.328-3.328,3.328,3.328,0,0,0,3.328,3.328Z" transform="translate(54.768 -57.89)" fill="#fff"/><path d="M32.48,59.764a21.071,21.071,0,0,0,0,2.447,4.166,4.166,0,0,0,.539,0H36.1A.905.905,0,0,1,36.1,64a3.107,3.107,0,0,1-.685,0H32.529a4.625,4.625,0,0,0,0,1.542h4.7a3.794,3.794,0,0,1,.759,0,.881.881,0,0,1,.685.93.905.905,0,0,1-.782.856H31.869c-.979,0-1.273-.293-1.273-1.273V58.712a1.982,1.982,0,0,1,0-.392.93.93,0,0,1,1-.293h6.363a.905.905,0,0,1,.734.808.832.832,0,0,1-.563.905,2.448,2.448,0,0,1-.858.122H32.48Z" transform="translate(32.551 -57.756)" fill="#fff"/><path d="M55.779,64.314H53.331a3.327,3.327,0,0,0,0,.661v1.933a.832.832,0,0,1-.318.685.905.905,0,0,1-1.469-.588,4.7,4.7,0,0,1,0-.588V59.371c0-.979.2-1.468,1.421-1.421s2.447,0,3.766,0a2.863,2.863,0,0,1,2.447,1.492,3.426,3.426,0,0,1-.808,4.209L58,63.92a.856.856,0,0,0,.171.661c.269.539.563,1.076.832,1.64a1.492,1.492,0,0,1,.2.639.808.808,0,0,1-.49.856.979.979,0,0,1-1.076-.22,3.229,3.229,0,0,1-.293-.49l-1.072-2.059a1.935,1.935,0,0,1-.492-.634Zm-2.618-1.908H56.44a1,1,0,0,0,.832-.416,1.468,1.468,0,0,0,.147-1.542,1.076,1.076,0,0,0-1.1-.639H53.625a1.761,1.761,0,0,0-.465,0,20.8,20.8,0,0,0,0,2.6Z" transform="translate(62.87 -57.803)" fill="#fff"/><path d="M16.253,63.957c.342.685.661,1.273.979,1.884a6.242,6.242,0,0,1,.318.711.91.91,0,0,1-1.591.808,5.187,5.187,0,0,1-.293-.49c-.441-.856-.905-1.713-1.322-2.569a6.852,6.852,0,0,0-2.643,0v2.47a.881.881,0,0,1-.909.93.93.93,0,0,1-.924-.832V63.2a.905.905,0,0,1,.954-.881h3.5a3.94,3.94,0,0,0,.759,0,1.224,1.224,0,0,0,1.076-1.273,1.174,1.174,0,0,0-1.15-1.273H11.361a3.572,3.572,0,0,1-.881,0,.856.856,0,0,1-.685-.905.93.93,0,0,1,.782-.856h4.258a5.947,5.947,0,0,1,1.15.2,2.79,2.79,0,0,1,1.369,1,3.548,3.548,0,0,1-.441,4.356Z" transform="translate(2.453 -57.715)" fill="#fff"/><path d="M58.682,64.019l-.441.367a1.076,1.076,0,0,0-.539,1.15v1.052a1.664,1.664,0,0,1,0,.49.881.881,0,0,1-.808.711.93.93,0,0,1-.954-.661,3.964,3.964,0,0,1,0-.759V59.394a3.279,3.279,0,0,1,0-.49.954.954,0,0,1,.905-.954.93.93,0,0,1,.93.93,4.137,4.137,0,0,1,0,.563v2.031a3.672,3.672,0,0,0,0,.539c.244,0,.342,0,.465-.147l3.793-3.3a5.948,5.948,0,0,1,.612-.49.881.881,0,0,1,1.125.22.954.954,0,0,1,0,1.15,5.843,5.843,0,0,1-.563.539l-2.447,2.252-.49.49.563.588c.93.905,1.86,1.786,2.765,2.716a1.713,1.713,0,0,1,.416.612.93.93,0,0,1-1.492.93c-.416-.367-.832-.782-1.248-1.2l-2.08-2.007A3.989,3.989,0,0,0,58.682,64.019Z" transform="translate(69.217 -57.802)" fill="#fff"/><path d="M9.862,61.018l-.441.711L6.754,66.864a2.842,2.842,0,0,1-.342.588.881.881,0,0,1-1.125.244.93.93,0,0,1-.465-1.076c0-.2.2-.416.293-.612,1.2-2.447,2.447-4.7,3.646-7.048a2.618,2.618,0,0,1,.391-.661.881.881,0,0,1,1.421,0,4.6,4.6,0,0,1,.342.588c1.248,2.447,2.447,4.894,3.72,7.219a1.835,1.835,0,0,1,.22.711.832.832,0,0,1-.563.905.93.93,0,0,1-1.028-.318,3.01,3.01,0,0,1-.342-.612L10.476,61.9Z" transform="translate(-4.787 -57.81)" fill="#fff"/><path d="M19.07,61.058,18.238,62.6c-.711,1.395-1.444,2.79-2.178,4.185a3.7,3.7,0,0,1-.367.685.856.856,0,0,1-1.052.244.808.808,0,0,1-.539-.832,3.083,3.083,0,0,1,.318-.905c.514-1.028,1.052-2.056,1.591-3.084s1.371-2.692,2.08-4.038a2.667,2.667,0,0,1,.342-.563.905.905,0,0,1,1.421,0,2.448,2.448,0,0,1,.244.416c1.3,2.447,2.594,4.894,3.867,7.341a2.448,2.448,0,0,1,.2.441.905.905,0,0,1-.465,1.052.881.881,0,0,1-1.125-.269,4.477,4.477,0,0,1-.441-.734l-2.447-4.723a2.2,2.2,0,0,0-.612-.759Z" transform="translate(8.691 -57.802)" fill="#fff"/><path d="M40.7,59.826V66.14a3.965,3.965,0,0,1,0,.759.93.93,0,0,1-1,.833.905.905,0,0,1-.856-.905,5.94,5.94,0,0,1,0-.661V59.828H35.465a.905.905,0,0,1-.782-.954.954.954,0,0,1,.881-.881h8.3a.93.93,0,0,1,.734.808.832.832,0,0,1-.563.905,2.055,2.055,0,0,1-.759.122H40.7Z" transform="translate(38.474 -57.745)" fill="#fff"/><path d="M49.677,61.048H47.743a1.077,1.077,0,0,1-.539-.171.588.588,0,0,1-.2-.588.639.639,0,0,1,.514-.49H51.9a.759.759,0,0,1,.563.711.685.685,0,0,1-.612.639,3.94,3.94,0,0,1-.759,0Z" transform="translate(56.295 -55.125)" fill="#fff"/></g></g></g></svg>