<svg id="Layer_1" data-name="Layer 1" xmlns="http://www.w3.org/2000/svg" viewBox="0 0 80.5 32"><defs><style>.cls-1{fill:#fff;}.cls-2{fill:#75b26c;}</style></defs><path class="cls-1" d="M49.5,19.8c.1-.3.1-.6.2-.9a25.58,25.58,0,0,0,.5-2.7c.1-.9.4-1.8.5-2.6,0-.1.1-.3.1-.4A.22.22,0,0,1,51,13l1.5-.5,2.1-.7c.1,0,.2,0,.2-.1s0-.1-.1-.2l-2-2.8-.3-.6.1-.2,1.4-3.4c.4-.8.7-1.7,1.1-2.5,0-.1.1-.1.1-.2s.1-.2.3-.2h1.1l1-.1,1-.1,1-.1,1-.1,1-.2H62l1.2,1.8a20.28,20.28,0,0,1,1.3,1.8c.1,0,.1-.1.2-.1l.7-1,1.5-2.1L67,1h.1l.9.1,1,.1,1,.1,1.1.1,1,.1.9.1h.5a.22.22,0,0,1,.2.2L74.2,3c.7,1.6,1.4,3.2,2.2,4.8.1.2.1.2,0,.4l-2.2,3.1c0,.1-.1.1-.1.2s.1.1.2.1l1.4.5,2.2.7c.2.1.2.1.3.3l.6,2.9c.2,1,.4,1.9.6,2.9,0,.2.1.5.1.7s0,.3-.1.3c-.5.4-.9.9-1.4,1.3l-3.3,3-.1.1c-.1.1-.2.1-.2,0L73.2,24l-2.5-.8h-.3v4.3c-.1.1-5.6,3.4-5.9,3.5h-.1L60,28.4l-1-.6-.1-.1c-.1,0-.1-.1-.1-.2V23.4a.1.1,0,0,0-.1-.1h0l-.2.1-2.9,1-.7.2c0,.1-.2.1-.3.1-.1-.2-.1-.2-.1-.3l-.6-.5L49.7,20Zm25.2,3.1.1-.1.5-.4,3-2.8.2-.2c-.3-1.6-.7-3.3-1-4.9v-.1h-.1l-.1.1-2.2,2-1.2,1.2c-.1.1-.2.2-.1.3l.4,1.7a14.19,14.19,0,0,0,.5,2.2,2.35,2.35,0,0,0,.2.8c-.2.1-.2.2-.2.2Zm-23-8.5h0l-.3,1.5c-.2.8-.3,1.5-.5,2.3a4.4,4.4,0,0,0-.2,1,.19.19,0,0,0,.1.3l.1.1,2.3,2.1,1.1,1a.35.35,0,0,0,.2.1c0-.1,0-.1.1-.2l.4-2.2.5-2.5a.6.6,0,0,0-.1-.4l-3.2-2.9-.3-.3c-.1.2-.2.1-.2.1ZM60.8,2.2h-.7l-1,.1-1,.1-1,.1-1,.1c-.3,0-.3,0-.4.3L54.3,6.2l-.4,1v.2h.6l1-.1,1-.1,1-.2,1-.1h.2c.1-.2,1.9-4.4,2-4.6Zm7.3,0h0c.7,1.5,1.3,3,1.9,4.5,0,.1.1.1.1.2h.4l1.4.1,1.4.2,1.2.1.6.1h.1c0-.1,0-.2-.1-.2L74,4.7c-.3-.6-.5-1.2-.8-1.8a.22.22,0,0,0-.2-.2c-.3,0-.6-.1-1-.1l-1-.1-1-.1-1-.1-.9-.1Zm-8,25,.3.2,2.9,1.8c.3.2.7.4,1,.6a.3.3,0,0,0,.4,0h0l1.7-1,2.3-1.4c.1,0,.1-.1.2-.1v-.1c-.4-.2-4.3-2.5-4.4-2.6l-4.4,2.6Zm7-24.6-.2.2L65.2,5.3l-.1.1v.1l.1.2.5.7c.2.3.2.2,0,.6-.2.6-.5,1.1-.7,1.7V9c.4.8.7,1.6,1.1,2.4l.1.1c.1,0,.1-.1.2-.1L68,9.2l1.1-1.6c.2-.2.1-.2,0-.4-.6-1.4-1.2-2.9-1.9-4.3,0-.2,0-.2-.1-.3ZM63.8,5.4l-.1-.2-1-1.4-.7-1c0-.1-.1-.1-.1-.2s-.1.1-.1.2L60,7c-.1.3-.1.2,0,.5l1.8,2.6.9,1.2c0,.1.1.1.2.2s.1-.1.1-.2c.2-.5.5-1.1.7-1.6a6.89,6.89,0,0,0,.3-.8V8.6l-.1-.1c-.2-.5-.5-1.1-.7-1.6a.35.35,0,0,0-.1-.2l.3-.7a1.27,1.27,0,0,0,.4-.6ZM65,18.5v4.9c0,.1.1.3.2.3h0l2.7,1.6,1.3.8c.1.1.1.1.2.1V22.9c0-.2,0-.2-.2-.3h-.1l-1-.3a.22.22,0,0,1-.2-.2c-.1-.4-.2-.9-.3-1.3l-.1-.7c0-.1-.1-.1-.1-.2l-.3-.2-1.9-1.1c-.1,0-.1,0-.2-.1Zm2.8-2v.2l.5,2.3v.2c0,.1.1.1.1.2l.1.1,1.6,1,.2.1v1.3c0,.3,0,.3.2.4l2.5.8.4.1h.1v-.3c-.3-1.5-.6-2.9-.9-4.4,0-.1-.1-.2-.1-.4l-.1-.1-3-1-1.3-.4a.37.37,0,0,0-.3-.1Zm5.6-4-.1.2-.6.9c0,.1-.1.1-.1.2h-.5L71,13.7l-.6-.1a.37.37,0,0,0-.3.1l-.6.4-1.3,1.2-.1.1a.35.35,0,0,0,.2.1l4.4,1.4c.3.1.2.1.5-.1l2.7-2.5.7-.6a.35.35,0,0,0,.1-.2l-.1-.1a29.88,29.88,0,0,1-3.2-.9Zm1.6-4h-.1l-.7-.1-1-.1-1-.1-1-.1-1-.1c-.3,0-.2,0-.4.2-.7,1.1-1.5,2.1-2.3,3.2l-.4.6s-.1.1,0,.1h0l.5.1,1,.1c.3,0,.7.1,1,.1.1,0,.3,0,.3-.1l.1-.1L71.5,11l.1-.1h.1l.1.1,1,.3.2.1.1-.2,1.4-1.9.4-.6c.1-.1.1-.1.1-.2ZM55.9,11.3l.2-.1L57,11l.3-.1h.2l.4.4,1.1,1a.37.37,0,0,0,.3.1l.6-.1,1.5-.2a.37.37,0,0,0,.3-.1c0-.1-.1-.2-.1-.3L59,8c-.2-.3-.1-.3-.6-.2l-.9.3-1,.1-1,.1-1,.1-.5.1h-.1l.1.1A21,21,0,0,0,55.9,11.3Zm-3.6,2.3c.1.1.2.1.2.2l1.8,1.7c.6.5,1.2,1,1.7,1.5.1.1.2.1.2,0h.1l2.2-.7,2.1-.7c.1,0,.2,0,.2-.1s-.1-.1-.1-.2l-1.5-1.4-.3-.3a.35.35,0,0,0-.2-.1l-1.2.1-.9.1h-.2l-.9-1.2a26.28,26.28,0,0,0-3,1Zm3.1,9.5h0l.9-.3,2-.7c.2-.1.2-.1.2-.3V20.6c0-.2,0-.2.2-.3l.1-.1,1.6-1a.22.22,0,0,0,.2-.2c.1-.3.1-.6.2-.9l.3-1.5v-.2c-.1,0-.2,0-.2.1l-3.7,1.3-.6.2a.22.22,0,0,0-.2.2v.1c-.1.3-.1.6-.2.9-.3,1.2-.5,2.4-.8,3.7Zm7.1-7.6a11.63,11.63,0,0,1-.4,1.8c-.1.4-.1.7-.2,1.1v.1a.35.35,0,0,0,.2-.1l2.2-1.3.2-.1.2.1,1.7,1.1.6.4s.1.1.1,0v-.1l-.6-2.7c-.1-.3,0-.3.1-.4l1.5-1.3.5-.4.1-.1-.2-.1-1-.1-.5-.1c-.3,0-.7-.1-1-.1s-.3,0-.4-.3c-.3-.8-.7-1.6-1-2.5a.35.35,0,0,0-.1-.2l-.1.1-.1.1c-.4.8-.7,1.6-1.1,2.4,0,.1-.1.2-.1.3s-.1.1-.2.1h-.1l-.6.1-1,.1-1,.1c-.1,0-.1,0-.2.1l.7.7.7.7ZM59.6,26.3c.1,0,.2-.1.3-.1l3.9-2.3c.3-.1.2-.1.2-.4V18.6c-.1,0-.1,0-.2.1-.7.4-1.3.8-2,1.2-.1.1-.2.2-.2.3-.1.7-.3,1.4-.4,2a.22.22,0,0,1-.2.2l-.6.2-.5.2c-.2.1-.2.1-.2.3v3.1C59.6,26.2,59.6,26.2,59.6,26.3Zm0-4.6h0l.6-.2a.1.1,0,0,0,.1-.1c0-.2.1-.4.1-.7v-.1h-.1c-.1.1-.2.1-.3.2s-.2.1-.3.2l-.1.1A.64.64,0,0,0,59.6,21.7Zm-3.1-9.5a.76.76,0,0,1,.2.4c0,.1.1.1.2.1l.7-.1h.1v-.1l-.5-.5h-.1A1.42,1.42,0,0,0,56.5,12.2Zm15.9,0c-.1-.1-.3-.1-.4-.2s-.1,0-.2.1l-.5.4-.1.1a.35.35,0,0,0,.2.1h.5c.1,0,.1,0,.1-.1l.4-.4Zm-3,9.5v-.5c0-.1,0-.2-.1-.2l-.5-.3h-.1v.1c0,.2.1.4.1.7a.1.1,0,0,0,.1.1l.3.1Zm-5-14.2h0c.2-.2.2-.4.3-.6V6.7l-.2-.3h0a1.38,1.38,0,0,0-.3.4v.1A1.42,1.42,0,0,1,64.4,7.5Z"/><path class="cls-2" d="M61.6,14a14.77,14.77,0,0,1,2.1-.1.35.35,0,0,1,.1-.2c.2-.5.3-1,.5-1.5,0-.1,0-.2.1-.2a1.45,1.45,0,0,1,.2.7l.2.6a6.37,6.37,0,0,1,.2.7h2.1c-.1.1-.2.2-.3.2l-.3.2-.3.2-.3.2-.3.2-.1.2a.37.37,0,0,0,.1.3l.5,1.5c0,.1.1.1,0,.2s-.1,0-.2-.1l-1.4-1-.1-.1-.9.6-.9.6c.1-.4.2-.7.3-1s.2-.7.3-1c0-.1-.1-.1-.2-.2l-1.3-.9Z"/><path class="cls-1" d="M28.51,7.51l0,2.49c0,.38-.2.57-.61.57H17.7q-.54,0-.54-.57V6.59H15.49v.32a1.41,1.41,0,0,0-1-.32,1.82,1.82,0,0,0-1.25.46,2.16,2.16,0,0,0-.67,1.72,2.61,2.61,0,0,0,.08.6,2.4,2.4,0,0,0,.3.69,1.61,1.61,0,0,0,.56.57,1.68,1.68,0,0,0,.9.24h1.1a1.26,1.26,0,0,0,.4.72,1.53,1.53,0,0,0,1.14.48H28.39c1.21,0,1.82-.56,1.82-1.68l0-2.88Zm-13.76,2a.45.45,0,0,1-.41-.28.73.73,0,0,1-.1-.44c0-.5.23-.75.59-.75a.9.9,0,0,1,.66.32V9.48Z"/><rect class="cls-1" x="27.55" y="13.01" width="1.45" height="1.41"/><polygon class="cls-1" points="31.76 4.27 31.82 12.07 33.5 12.07 33.44 4.27 31.76 4.27"/><rect class="cls-1" x="41.96" y="13.01" width="1.45" height="1.41"/><path class="cls-1" d="M44.6,7.51H42.92l0,2.49c0,.38-.2.57-.61.57H39.7V9.4a1.85,1.85,0,0,0-.37-1.05,2,2,0,0,0-.72-.57,2.53,2.53,0,0,0-.75-.23l-.28,0H37.4a2.84,2.84,0,0,0-.76.1,2.43,2.43,0,0,0-.77.39,2.08,2.08,0,0,0-.61.71A2.58,2.58,0,0,0,35,9.84a2.24,2.24,0,0,0,.57,1.51,2,2,0,0,0,1.54.72h.61a2.91,2.91,0,0,1-1.15.89,3.88,3.88,0,0,1-1.42.39l.33.37.81.92a3.66,3.66,0,0,0,2.06-.81,3.62,3.62,0,0,0,1.16-1.76H42.8q1.83,0,1.83-1.68ZM38,10.57h-.68c-.5,0-.75-.3-.75-.89A1,1,0,0,1,36.8,9a.68.68,0,0,1,.58-.31.55.55,0,0,1,.54.28,1.33,1.33,0,0,1,.1.6Z"/><path class="cls-1" d="M22.6,24.59a1.22,1.22,0,0,1-.39,1,1.33,1.33,0,0,1-.91.3H17.57a3.3,3.3,0,0,1-1.74-.43,2.85,2.85,0,0,1-1.06-1.09,4.82,4.82,0,0,1-.53-1.47,8.68,8.68,0,0,1-.14-1.58h1.66a4.91,4.91,0,0,0,.39,2.16,1.57,1.57,0,0,0,1.49.91h3c.19,0,.29-.14.29-.43L20.9,21.3h1.68l0,1.71ZM18,28.2V26.8h1.44v1.4Z"/><path class="cls-1" d="M27.7,25.87a1.34,1.34,0,0,1-.82-.26,3.33,3.33,0,0,1-3.34,2.82l-.79-.92-.34-.37a3.67,3.67,0,0,0,1.89-.68,1.91,1.91,0,0,0,1-1.63l0-3.53h1.7l0,2a1.12,1.12,0,0,0,.33.8.78.78,0,0,0,.54.24H29v1.5Z"/><path class="cls-2" d="M34.74,25.87A1.71,1.71,0,0,1,34,25.7a1.91,1.91,0,0,1-.51-.32,4.72,4.72,0,0,1-2,.49H28.73v-1.5h2.71a3.89,3.89,0,0,0,1-.12,4.34,4.34,0,0,0-1-.86A3.3,3.3,0,0,0,30,23V21.79A5.52,5.52,0,0,1,31.81,21a5.91,5.91,0,0,1,1.88-.15,5.22,5.22,0,0,1,3.16,1.33A8.05,8.05,0,0,1,35,24.37h2.72v1.5Zm-1-3.57a3.4,3.4,0,0,0-1.28.06,3.47,3.47,0,0,1,.76.49,5.15,5.15,0,0,1,.63.61,4.62,4.62,0,0,0,.85-.87A2.93,2.93,0,0,0,33.73,22.3Z"/><path class="cls-1" d="M41.26,24.19q0,1.68-1.83,1.68h-1.9v-1.5H39c.41,0,.61-.19.61-.57V20.93c0-.63,0-1.2,0-1.73V18.07h1.69Z"/><path class="cls-1" d="M42.86,25.87l-.06-7.8h1.68l.06,7.8Z"/><rect class="cls-1" x="13.67" y="3.57" width="1.44" height="1.39"/><rect class="cls-1" x="15.7" y="3.57" width="1.45" height="1.39"/></svg>