<svg id="Layer_1" data-name="Layer 1" xmlns="http://www.w3.org/2000/svg" viewBox="0 0 64 64"><defs><style>.cls-1{fill:#fff;}.cls-2{fill:#2b70fa;}</style></defs><path class="cls-1" d="M4.89,35.86c.11-.55.22-1.11.34-1.66.33-1.61.67-3.22,1-4.84l1-4.75c.06-.27.13-.54.17-.81s.15-.31.34-.38c.83-.26,1.65-.54,2.47-.82l3.86-1.28c.15-.05.32-.06.42-.2a.69.69,0,0,0-.18-.35l-3.6-5.07L10,14.75c.05-.13.09-.25.14-.37L12.8,8.26c.64-1.49,1.29-3,1.93-4.46a2.41,2.41,0,0,0,.15-.33c.07-.24.24-.3.47-.33.68-.06,1.36-.15,2-.22l1.81-.18L21,2.54l1.76-.19,1.77-.19L26.43,2,26.9,2h.4C28.07,3,28.82,4,29.57,5.08s1.5,2.13,2.25,3.17c.19,0,.23-.13.3-.22.44-.61.87-1.23,1.3-1.84l2.7-3.81.35-.48a1,1,0,0,1,.24,0l1.69.18,1.84.2L42,2.46l2,.21,1.84.21,1.69.18.94.09a.44.44,0,0,1,.41.31l.93,2.14q1.9,4.38,3.8,8.77c.17.37.21.31-.08.71L49.6,20.63c-.09.12-.17.26-.25.38.08.18.25.18.37.23l2.44.81,4,1.34c.42.14.41.14.5.55l1.08,5.18c.35,1.73.71,3.46,1.06,5.19.09.41.15.83.27,1.23a.57.57,0,0,1-.21.62c-.84.76-1.67,1.53-2.5,2.3l-6,5.5-.24.22a.38.38,0,0,1-.43.09l-2.09-.7-4.5-1.51a.8.8,0,0,0-.48-.09v7.78c-.26.21-10.18,6.11-10.68,6.34l-.33-.18-8-4.73L21.7,50.05l-.23-.14a.31.31,0,0,1-.18-.33v-7a3.09,3.09,0,0,0,0-.43.13.13,0,0,0-.11-.13h-.05l-.38.11L15.5,43.89c-.38.13-.78.24-1.16.38a.38.38,0,0,1-.43-.09c-.34-.33-.69-.65-1-1l-7.52-7A1.77,1.77,0,0,1,4.89,35.86Zm45.48,5.62.2-.16.85-.77,5.43-5a.83.83,0,0,0,.3-.39c-.61-3-1.23-5.93-1.85-8.9a.23.23,0,0,0-.07-.16.47.47,0,0,0-.15.06l-.24.21L50.92,30c-.75.7-1.5,1.4-2.27,2.09a.58.58,0,0,0-.19.63c.23,1,.43,2.06.65,3.09.27,1.34.55,2.68.83,4,.1.49.2,1,.31,1.47C50.26,41.34,50.32,41.39,50.37,41.48ZM8.75,26.12a.24.24,0,0,1-.05.17l-.54,2.59c-.29,1.36-.57,2.73-.86,4.09l-.39,1.9a.49.49,0,0,0,.18.59c.08.06.15.14.23.21l4.12,3.81,2,1.83c.07.07.14.16.28.12a3,3,0,0,0,.1-.32l.81-4c.31-1.48.61-3,.93-4.44a.65.65,0,0,0-.23-.69L9.62,26.77,9,26.21C9,26.15,8.88,26.07,8.75,26.12ZM25.35,4h-.24l-1,.1-1.77.19-1.88.2-1.77.19c-.63.07-1.25.15-1.88.2s-.54.08-.73.51l-2.61,6-.76,1.74a.44.44,0,0,0-.07.4H13l1-.11,1.8-.2L17.59,13l1.85-.21,1.8-.19.41-.07c.15-.27,3.49-7.88,3.67-8.39A.35.35,0,0,0,25.35,4ZM38.47,4v.1L42,12.19c0,.12.11.23.17.35l.56.09,2.56.26,2.55.29,2.12.23,1.06.1h.21a.82.82,0,0,0-.12-.43l-2-4.68L47.67,5.21a.5.5,0,0,0-.46-.36l-1.73-.17-1.85-.21-1.76-.19-1.81-.19L38.65,4ZM24,49.29l.47.29,5.34,3.16c.59.35,1.18.69,1.76,1a.53.53,0,0,0,.69,0,.21.21,0,0,1,.1-.06l3-1.77,4.14-2.46c.11-.06.25-.1.31-.25a.52.52,0,0,0-.1-.11c-.5-.35-7.53-4.48-7.82-4.59Q28,46.84,24.13,49.14C20.26,51.44,24.06,49.21,24,49.29ZM36.73,4.75a1,1,0,0,0-.33.36L33.25,9.56l-.16.23a.24.24,0,0,0,0,.26l.19.26.91,1.29c.4.59.39.38.1,1.05-.43,1-.87,2-1.31,3a.62.62,0,0,0,0,.53q1,2.2,1.93,4.42a1.59,1.59,0,0,0,.13.22c.18,0,.22-.16.29-.26,1-1.34,1.91-2.69,2.86-4l2-2.87c.28-.39.28-.33.08-.79C39.15,10.3,38,7.71,36.89,5.11Zm-6,5.15-.26-.39L28.65,6.9,27.34,5.06c-.07-.11-.13-.23-.27-.28a.71.71,0,0,0-.22.37l-3.34,7.68c-.23.54-.24.41.1.89l3.31,4.68c.5.71,1,1.42,1.51,2.12.08.12.14.26.29.31s.16-.21.21-.33c.42-1,.85-1.95,1.27-2.93.2-.46.39-.92.61-1.38a.53.53,0,0,0,0-.52,1.89,1.89,0,0,1-.11-.25l-1.28-2.94-.15-.41L30,11a11.94,11.94,0,0,0,.76-1.1Zm2.1,23.69a.78.78,0,0,0-.07.45v8.5a.53.53,0,0,0,.34.6h.07L38,46l2.31,1.37a.61.61,0,0,0,.39.13V41.61c0-.36,0-.36-.34-.48l-.15-.05c-.57-.19-1.14-.39-1.72-.57a.51.51,0,0,1-.4-.43c-.15-.79-.31-1.57-.48-2.36-.09-.45-.19-.9-.28-1.35a.49.49,0,0,0-.25-.34l-.47-.28-3.47-2a.62.62,0,0,0-.31-.16Zm5-3.7v.28l.87,4.21a3,3,0,0,0,.09.43.41.41,0,0,0,.23.3l.2.12,3,1.77.34.21v2.31c0,.49,0,.47.45.63l4.49,1.5.79.25h.19a1.35,1.35,0,0,0-.05-.53l-1.65-8a3.35,3.35,0,0,0-.16-.68l-.47-.17L40.7,30.71l-2.33-.77a.57.57,0,0,0-.46-.05Zm10.22-7.2-.26.35c-.37.52-.73,1-1.1,1.55-.08.12-.17.23-.24.32a3.41,3.41,0,0,1-.9-.05l-2-.22-1.14-.11a.55.55,0,0,0-.47.16l-1,.89c-.78.71-1.55,1.43-2.32,2.15-.09.07-.2.13-.21.27a.45.45,0,0,0,.3.16l7.84,2.61c.56.18.43.26.92-.2l4.88-4.51,1.22-1.13a.53.53,0,0,0,.24-.31.42.42,0,0,0-.13-.08c-.45-.24-5.24-1.8-5.55-1.85Zm3-7.29-.17-.05-1.22-.15-1.8-.2L46,14.81l-1.81-.19c-.6-.06-1.2-.15-1.8-.2s-.43-.05-.69.31l-4.2,5.94c-.26.36-.52.73-.77,1.1-.06.07-.13.14-.06.25a.21.21,0,0,0,.11,0l.86.11,1.8.2c.62.07,1.24.11,1.85.2a.59.59,0,0,0,.6-.19c0-.06.12-.1.18-.16l2.52-2.33.18-.16a.22.22,0,0,1,.22,0l.26.08,1.8.59.43.14.28-.35,2.33-3.3.77-1.09C50.9,15.64,51,15.56,51,15.4ZM16.39,20.53l.39-.12,1.65-.55.56-.18a.27.27,0,0,1,.32.08l.81.75,2,1.82a.65.65,0,0,0,.57.21c.37-.06.75-.07,1.13-.11l2.83-.31a1.87,1.87,0,0,0,.57-.12,1.17,1.17,0,0,0-.26-.46c-1.57-2.22-3.14-4.45-4.72-6.67-.38-.52-.22-.51-1-.42l-1.84.2-1.81.19-1.8.2-1.85.19-.94.12-.18.07a.72.72,0,0,0,.09.2C13.36,16.39,16.14,20.26,16.39,20.53ZM10,24.64l.32.32,3.34,3.09c1,.9,2,1.8,2.93,2.71a.37.37,0,0,0,.46.1l.22-.07,3.93-1.31L25,28.2c.15-.05.32-.06.42-.2s-.14-.22-.23-.3l-2.76-2.55-.58-.54a.35.35,0,0,0-.32-.11l-2.24.24-1.69.18h-.38c-.56-.72-1-1.48-1.58-2.17-.33.06-4.72,1.49-5.43,1.77Zm5.53,17.24h.22l1.46-.48,3.67-1.23c.33-.11.34-.12.34-.47a.43.43,0,0,0,0-.16V37.6c0-.44,0-.4.34-.62l.24-.14c1-.59,2-1.19,3-1.77a.61.61,0,0,0,.33-.46c.1-.55.23-1.11.34-1.66.19-.9.38-1.8.56-2.7a.38.38,0,0,0,0-.36,1,1,0,0,0-.44.11l-6.66,2.22-1.32.43a.38.38,0,0,0-.29.33.89.89,0,0,1,0,.23c-.12.57-.23,1.14-.34,1.71l-1.38,6.6a.5.5,0,0,0,0,.36ZM28.32,28.09c-.23,1.1-.45,2.17-.67,3.24-.14.66-.28,1.32-.41,2a.35.35,0,0,0,.07.26,1.16,1.16,0,0,0,.4-.2L31.61,31l.38-.2.36.2,3.12,2,1.08.67c.07,0,.15.11.26,0v-.22c-.34-1.64-.66-3.28-1-4.91-.11-.53,0-.48.24-.75l2.67-2.48.83-.78c.08-.07.18-.13.15-.28l-.37-.08L37.53,24l-.94-.1c-.6-.07-1.2-.16-1.81-.2s-.53-.08-.72-.55l-1.83-4.46a.64.64,0,0,0-.22-.38.3.3,0,0,0-.1.1,1.47,1.47,0,0,0-.14.28L29.83,23c-.07.16-.15.31-.21.47a.37.37,0,0,1-.34.23h-.19l-1,.11L26.3,24l-1.73.17a.29.29,0,0,0-.3.16c.42.44.89.83,1.34,1.26s.88.82,1.33,1.24Zm-5.27,19.5a1.49,1.49,0,0,0,.48-.22l7.07-4.19c.46-.27.39-.22.39-.71V33.74a.38.38,0,0,0,0-.15.64.64,0,0,0-.37.15c-1.2.71-2.4,1.43-3.6,2.13a.72.72,0,0,0-.39.55c-.25,1.24-.52,2.47-.76,3.71a.5.5,0,0,1-.39.43c-.37.11-.72.24-1.09.36l-1,.32c-.35.12-.35.12-.35.47v5.53A.47.47,0,0,0,23.05,47.59Zm0-8.25h.12l.9-.29a.27.27,0,0,0,.19-.23c.08-.4.17-.8.24-1.2a1.13,1.13,0,0,0,0-.26l-.24.1-.58.34-.5.3a.24.24,0,0,0-.15.22A5,5,0,0,0,23.05,39.34ZM17.53,22.13a3.83,3.83,0,0,0,.46.72.33.33,0,0,0,.33.15l1.29-.15h.19v-.13l-.95-.89a.28.28,0,0,0-.22,0A5.27,5.27,0,0,0,17.53,22.13Zm28.74-.08a5.57,5.57,0,0,0-.81-.29.31.31,0,0,0-.35.09l-.81.75a.59.59,0,0,0-.13.18c.08.12.19.11.29.13l.78.08h.28a.25.25,0,0,0,.24-.11c.17-.23.33-.47.49-.71C46.27,22.16,46.26,22.11,46.27,22.05Zm-5.5,17.23v-.82a.38.38,0,0,0-.2-.36l-.88-.51a.54.54,0,0,0-.18,0v.09c.08.4.15.8.24,1.2a.29.29,0,0,0,.23.24l.56.2ZM31.86,13.55c.07-.06.11-.08.12-.11.15-.32.29-.64.43-1a.26.26,0,0,0,0-.29c-.11-.16-.22-.33-.34-.48l-.15-.14a2.4,2.4,0,0,0-.53.7.28.28,0,0,0,0,.18A9.42,9.42,0,0,0,31.86,13.55Z"/><path class="cls-1" d="M43.88,60.49c.2-.56.36-1,.53-1.51.07-.21.14-.42.22-.63a1.34,1.34,0,0,1,.07-.18.38.38,0,0,1,.46-.2.37.37,0,0,1,.22.45c-.05.22-.13.43-.2.64l-.86,2.46a1.17,1.17,0,0,1-.1.26.37.37,0,0,1-.5.15.43.43,0,0,1-.15-.15c0-.08-.07-.16-.11-.25l-.71-1.76q-.06-.15-.15-.33a.35.35,0,0,0-.16.23l-.75,1.86a1.55,1.55,0,0,1-.14.29.36.36,0,0,1-.5.1.47.47,0,0,1-.1-.1,1.89,1.89,0,0,1-.11-.25l-1-2.91a.6.6,0,0,1-.06-.19A.39.39,0,0,1,40,58a.38.38,0,0,1,.48.24c.05.13.1.27.14.4l.54,1.53c0,.1.08.19.13.32l.14-.28c.23-.59.47-1.17.71-1.76a1.87,1.87,0,0,1,.15-.32.36.36,0,0,1,.5-.1l.1.1a1.51,1.51,0,0,1,.13.29c.24.57.47,1.15.7,1.72C43.75,60.22,43.8,60.31,43.88,60.49Z"/><path class="cls-1" d="M22.24,60l.1.14a1.15,1.15,0,0,1,.12,1.23,1.18,1.18,0,0,1-1,.64H19.54c-.3,0-.43-.13-.45-.43V58.46c0-.38.13-.5.5-.51h1.62l.35.06a1.2,1.2,0,0,1,.9,1.44,1.55,1.55,0,0,1-.08.23A3.09,3.09,0,0,1,22.24,60Zm-2.39-.37a11.69,11.69,0,0,0,1.45,0h.12a.45.45,0,0,0-.12-.88H19.94l-.1,0a5.21,5.21,0,0,0,0,.79Zm0,.83a1.58,1.58,0,0,0,0,.75h1.69a.37.37,0,0,0,.26-.31.34.34,0,0,0-.22-.38.75.75,0,0,0-.33-.07h-1.4Z"/><path class="cls-1" d="M28.66,60.46V58.57a1.61,1.61,0,0,1,0-.31.41.41,0,0,1,.79.11.89.89,0,0,1,0,.23v2.81a1.31,1.31,0,0,1,0,.28A.38.38,0,0,1,29,62a.36.36,0,0,1-.18-.07,1.54,1.54,0,0,1-.26-.25c-.59-.65-1.18-1.31-1.78-2-.08-.09-.15-.21-.27-.25s-.06.18-.06.27v1.62a1.71,1.71,0,0,1,0,.32.36.36,0,0,1-.38.32.35.35,0,0,1-.35-.35V58.3A.34.34,0,0,1,26,58a.38.38,0,0,1,.41,0,2.39,2.39,0,0,1,.22.23l1.89,2.07a.61.61,0,0,1,.12.16Z"/><path class="cls-1" d="M50.24,60a2.15,2.15,0,1,1-2.19-2.11h0A2.11,2.11,0,0,1,50.24,60Zm-2.13,1.36A1.36,1.36,0,1,0,46.75,60,1.36,1.36,0,0,0,48.11,61.36Z"/><path class="cls-1" d="M31.36,58.71a8.34,8.34,0,0,0,0,1h1.48a.37.37,0,0,1,0,.73,1.31,1.31,0,0,1-.28,0H31.38a1.67,1.67,0,0,0,0,.63h2.23a.37.37,0,0,1,0,.73H31.11c-.4,0-.52-.12-.52-.52v-3a.43.43,0,0,1,0-.16A.38.38,0,0,1,31,58h2.6a.38.38,0,0,1,.3.33.34.34,0,0,1-.23.37,1,1,0,0,1-.35,0h-2Z"/><path class="cls-1" d="M53.27,60.55h-1a1.22,1.22,0,0,0,0,.27v.79a.34.34,0,0,1-.13.28.38.38,0,0,1-.52,0,.46.46,0,0,1-.08-.19,1,1,0,0,1,0-.24V58.53c0-.4.08-.6.58-.58s1,0,1.54,0a1.16,1.16,0,0,1,1,.61,1.4,1.4,0,0,1-.33,1.72l-.15.11a.33.33,0,0,0,.07.27c.11.22.23.44.34.67a.61.61,0,0,1,.08.26.33.33,0,0,1-.2.35.4.4,0,0,1-.44-.09.82.82,0,0,1-.12-.2l-.44-.84A.79.79,0,0,1,53.27,60.55Zm-1.07-.78h1.34a.42.42,0,0,0,.34-.17.6.6,0,0,0,.06-.63.44.44,0,0,0-.45-.26H52.2A9.37,9.37,0,0,0,52.2,59.77Z"/><path class="cls-1" d="M12.43,60.44c.14.28.27.52.4.77a2.55,2.55,0,0,1,.13.29.37.37,0,0,1-.19.43.37.37,0,0,1-.46-.1l-.12-.2c-.18-.35-.37-.7-.54-1.05a2.8,2.8,0,0,0-1.08,0v1a.36.36,0,0,1-.34.38h0a.38.38,0,0,1-.38-.34v-1.5a.38.38,0,0,1,.38-.36H12a.5.5,0,0,0,.44-.52.48.48,0,0,0-.44-.52H10.43a2.16,2.16,0,0,1-.36,0,.35.35,0,0,1-.28-.37.37.37,0,0,1,.32-.35h1.74a2.43,2.43,0,0,1,.47.08,1.21,1.21,0,0,1,.56.41,1.45,1.45,0,0,1-.18,1.78Z"/><path class="cls-1" d="M57.05,60.43l-.18.15a.43.43,0,0,0-.22.47v.43a.67.67,0,0,1,0,.2.36.36,0,0,1-.33.29.38.38,0,0,1-.39-.27,1.61,1.61,0,0,1,0-.31v-3A.39.39,0,0,1,56.3,58a.38.38,0,0,1,.38.38h0a.89.89,0,0,1,0,.23v.83a.81.81,0,0,0,0,.22c.1,0,.14,0,.19-.06l1.55-1.35a2.43,2.43,0,0,1,.25-.2.36.36,0,0,1,.46.09.41.41,0,0,1,0,.47,2.39,2.39,0,0,1-.23.22l-1,.92-.2.2.23.24c.38.37.76.73,1.13,1.11a.85.85,0,0,1,.17.25.38.38,0,0,1-.29.46.41.41,0,0,1-.32-.08c-.17-.15-.34-.32-.51-.49l-.85-.82Z"/><path class="cls-1" d="M6.86,59.2l-.18.29-1.09,2.1a1,1,0,0,1-.14.24.36.36,0,0,1-.46.1.38.38,0,0,1-.19-.44c0-.08.08-.17.12-.25.49-1,1-1.92,1.49-2.88a.92.92,0,0,1,.16-.27.36.36,0,0,1,.5-.08l.08.08c0,.08.1.16.14.24.51,1,1,2,1.52,3a.75.75,0,0,1,.09.29.34.34,0,0,1-.23.37.38.38,0,0,1-.42-.13,1.23,1.23,0,0,1-.14-.25l-1-2Z"/><path class="cls-1" d="M16.13,59.22l-.34.63c-.29.57-.59,1.14-.89,1.71a1.51,1.51,0,0,1-.15.28.35.35,0,0,1-.43.1.34.34,0,0,1-.22-.34,1.26,1.26,0,0,1,.13-.37c.21-.42.43-.84.65-1.26s.56-1.1.85-1.65a1.09,1.09,0,0,1,.14-.23.37.37,0,0,1,.52-.06l.06.06a1,1,0,0,1,.1.17c.53,1,1.06,2,1.58,3a1.42,1.42,0,0,1,.08.18.37.37,0,0,1-.19.43.36.36,0,0,1-.46-.11,1.49,1.49,0,0,1-.18-.3l-1-1.93A.84.84,0,0,0,16.13,59.22Z"/><path class="cls-1" d="M37.14,58.74v2.58a1.61,1.61,0,0,1,0,.31.37.37,0,0,1-.41.34.37.37,0,0,1-.35-.37,1.22,1.22,0,0,1,0-.27V58.74H35a.38.38,0,0,1-.32-.39A.39.39,0,0,1,35,58h3.39a.38.38,0,0,1,.3.33.34.34,0,0,1-.23.37.81.81,0,0,1-.31.05h-1Z"/><path class="cls-2" d="M26.77,25.28a30.84,30.84,0,0,1,3.72-.13c.07-.17.13-.31.18-.46.29-.91.59-1.83.89-2.74a.75.75,0,0,1,.19-.4,10,10,0,0,1,.41,1.2c.13.38.25.78.38,1.16l.39,1.19a1.37,1.37,0,0,0,.53.08h3.28a3,3,0,0,1-.52.43l-.48.35-.51.37-.51.38-.48.35-.5.37a1.13,1.13,0,0,0,.11.48l.87,2.7c0,.13.14.26.07.42-.15,0-.22-.1-.32-.16l-2.34-1.69-.4-.28c-.55.37-1.06.77-1.58,1.14l-1.59,1.15c.18-.68.41-1.28.6-1.89s.4-1.2.57-1.78a.73.73,0,0,0-.33-.32l-2.33-1.71Z"/><path class="cls-1" d="M48.09,60.31H47.3a.44.44,0,0,1-.22-.07A.24.24,0,0,1,47,60a.27.27,0,0,1,.21-.2H49a.31.31,0,0,1,.23.29.27.27,0,0,1-.25.26h-.31Z"/></svg>