<svg xmlns="http://www.w3.org/2000/svg" viewBox="0 0 96 96"><defs><style>.cls-1{fill:none;stroke:#fff;stroke-linecap:square;stroke-miterlimit:10;stroke-width:2.63px;}</style></defs><g id="Icons"><circle class="cls-1" cx="48" cy="48" r="10.18" transform="translate(-19.88 48) rotate(-45)"/><circle class="cls-1" cx="48" cy="18" r="7.91" transform="translate(1.33 39.21) rotate(-45)"/><circle class="cls-1" cx="48" cy="78" r="7.91" transform="translate(-41.1 56.79) rotate(-45)"/><line class="cls-1" x1="48" y1="70.09" x2="48" y2="58.18"/><line class="cls-1" x1="48" y1="37.82" x2="48" y2="25.91"/><circle class="cls-1" cx="26.79" cy="26.79" r="7.91" transform="matrix(1, -0.01, 0.01, 1, -0.14, 0.14)"/><circle class="cls-1" cx="69.21" cy="69.21" r="7.91" transform="translate(-0.36 0.36) rotate(-0.29)"/><line class="cls-1" x1="63.62" y1="63.62" x2="55.2" y2="55.2"/><line class="cls-1" x1="40.8" y1="40.8" x2="32.38" y2="32.38"/><circle class="cls-1" cx="18" cy="48" r="7.91" transform="translate(-28.67 26.79) rotate(-45)"/><circle class="cls-1" cx="78" cy="48" r="7.91" transform="translate(-11.1 69.21) rotate(-45)"/><line class="cls-1" x1="70.09" y1="48" x2="63.62" y2="48"/><line class="cls-1" x1="37.82" y1="48" x2="25.91" y2="48"/><circle class="cls-1" cx="26.79" cy="69.21" r="7.91" transform="translate(-0.36 0.14) rotate(-0.29)"/><circle class="cls-1" cx="69.21" cy="26.79" r="7.91" transform="translate(-0.14 0.36) rotate(-0.29)"/><line class="cls-1" x1="63.62" y1="32.38" x2="55.2" y2="40.8"/><line class="cls-1" x1="40.8" y1="55.2" x2="32.38" y2="63.62"/><line class="cls-1" x1="45.96" y1="43.35" x2="43.35" y2="45.96"/></g></svg>