<svg xmlns="http://www.w3.org/2000/svg" viewBox="0 0 96 96"><defs><style>.cls-1{fill:none;stroke:#fff;stroke-linecap:square;stroke-miterlimit:10;stroke-width:2.63px;}</style></defs><g id="Icons"><g id="_9" data-name="9"><polyline class="cls-1" points="56.1 41.94 53.09 44.96 48.88 49.16 44.68 53.36 36.28 44.96 32.07 49.16 40.48 57.56 44.68 61.77 48.88 57.56 53.09 53.36 57.29 49.16 61.49 44.96 63.93 42.52 59.72 38.32"/><path class="cls-1" d="M68.74,18A33.59,33.59,0,0,1,54.28,14.8,28.69,28.69,0,0,1,48,10.86a28.69,28.69,0,0,1-6.28,3.94A33.59,33.59,0,0,1,27.26,18H17.37V55.16a24.09,24.09,0,0,0,7.31,17.3C31.55,79.1,48,87.73,48,87.73S64.45,79.1,71.32,72.46a24.09,24.09,0,0,0,7.31-17.3V18Z"/><path class="cls-1" d="M70.63,31.12v24a16.18,16.18,0,0,1-4.87,11.55C61.45,70.88,51.63,76.57,48,78.62c-3.63-2.05-13.46-7.75-17.76-11.91a16.14,16.14,0,0,1-4.87-11.55V26h1.89a41.8,41.8,0,0,0,17.9-4c1-.46,1.93-.95,2.84-1.47.91.52,1.87,1,2.86,1.48a41.78,41.78,0,0,0,17.88,4h1.89"/></g></g></svg>